<svg xmlns="http://www.w3.org/2000/svg" viewBox="0 0 560 360" role="img" aria-label="LMS Platform preview">
  <defs>
    <linearGradient id="lmsBg" x1="0" y1="0" x2="1" y2="1">
      <stop offset="0" stop-color="#0A0E1A"/>
      <stop offset="1" stop-color="#0E1530"/>
    </linearGradient>
    <linearGradient id="lmsCard1" x1="0" y1="0" x2="0" y2="1">
      <stop offset="0" stop-color="#00F0FF" stop-opacity="0.2"/>
      <stop offset="1" stop-color="#00F0FF" stop-opacity="0.05"/>
    </linearGradient>
    <linearGradient id="lmsCard2" x1="0" y1="0" x2="0" y2="1">
      <stop offset="0" stop-color="#B026FF" stop-opacity="0.2"/>
      <stop offset="1" stop-color="#B026FF" stop-opacity="0.05"/>
    </linearGradient>
    <linearGradient id="lmsCard3" x1="0" y1="0" x2="0" y2="1">
      <stop offset="0" stop-color="#5DCAA5" stop-opacity="0.2"/>
      <stop offset="1" stop-color="#5DCAA5" stop-opacity="0.05"/>
    </linearGradient>
  </defs>

  <rect width="560" height="360" fill="url(#lmsBg)"/>
  <rect x="20" y="20" width="520" height="320" rx="8" fill="#0E1530" stroke="#1E2A4A" stroke-width="1"/>
  <rect x="20" y="20" width="520" height="34" rx="8" fill="#0A0E1A"/>
  <rect x="20" y="46" width="520" height="8" fill="#0A0E1A"/>
  <circle cx="36" cy="37" r="4" fill="#FF6D5A"/>
  <circle cx="50" cy="37" r="4" fill="#FFB23F"/>
  <circle cx="64" cy="37" r="4" fill="#5DCAA5"/>
  <rect x="200" y="29" width="160" height="16" rx="4" fill="#1E2A4A"/>
  <text x="280" y="40" fill="#7A8AAE" font-family="JetBrains Mono, monospace" font-size="8" text-anchor="middle">lms.felix.dev / dashboard</text>
  <text x="528" y="40" fill="#00F0FF" font-family="JetBrains Mono, monospace" font-size="9" text-anchor="end" font-weight="700">// 003</text>

  <rect x="20" y="54" width="120" height="286" fill="#0A0E1A"/>
  <line x1="140" y1="54" x2="140" y2="340" stroke="#1E2A4A" stroke-width="1"/>

  <g transform="translate(36, 70)">
    <rect width="22" height="22" rx="4" fill="#00F0FF"/>
    <text x="11" y="16" fill="#0A0E1A" font-family="JetBrains Mono, monospace" font-size="11" font-weight="900" text-anchor="middle">L</text>
    <text x="34" y="16" fill="#FFF" font-family="Manrope, sans-serif" font-size="12" font-weight="800">LMS</text>
  </g>

  <g font-family="Manrope, sans-serif" font-size="9" font-weight="600">
    <rect x="28" y="112" width="104" height="26" rx="5" fill="#00F0FF" opacity="0.12"/>
    <rect x="28" y="112" width="3" height="26" rx="1.5" fill="#00F0FF"/>
    <rect x="40" y="121" width="10" height="10" rx="2" fill="none" stroke="#00F0FF" stroke-width="1.3"/>
    <line x1="40" y1="126" x2="50" y2="126" stroke="#00F0FF" stroke-width="1"/>
    <line x1="45" y1="121" x2="45" y2="131" stroke="#00F0FF" stroke-width="1"/>
    <text x="58" y="130" fill="#00F0FF">Dashboard</text>

    <g transform="translate(0, 32)">
      <rect x="40" y="118" width="10" height="13" rx="1" fill="none" stroke="#7A8AAE" stroke-width="1.3"/>
      <line x1="42" y1="121" x2="48" y2="121" stroke="#7A8AAE" stroke-width="1"/>
      <line x1="42" y1="125" x2="48" y2="125" stroke="#7A8AAE" stroke-width="1"/>
      <text x="58" y="130" fill="#7A8AAE">Cursos</text>
    </g>

    <g transform="translate(0, 60)">
      <circle cx="45" cy="123" r="3" fill="none" stroke="#7A8AAE" stroke-width="1.3"/>
      <path d="M 39 132 Q 45 127 51 132" fill="none" stroke="#7A8AAE" stroke-width="1.3"/>
      <text x="58" y="130" fill="#7A8AAE">Usuarios</text>
    </g>

    <g transform="translate(0, 88)">
      <rect x="40" y="120" width="2" height="10" fill="#7A8AAE"/>
      <rect x="44" y="123" width="2" height="7" fill="#7A8AAE"/>
      <rect x="48" y="118" width="2" height="12" fill="#7A8AAE"/>
      <text x="58" y="130" fill="#7A8AAE">Reportes</text>
    </g>

    <g transform="translate(0, 116)">
      <circle cx="45" cy="125" r="4" fill="none" stroke="#7A8AAE" stroke-width="1.3"/>
      <circle cx="45" cy="125" r="1.5" fill="#7A8AAE"/>
      <text x="58" y="130" fill="#7A8AAE">Ajustes</text>
    </g>
  </g>

  <g transform="translate(28, 290)">
    <rect width="104" height="32" rx="5" fill="#1E2A4A"/>
    <circle cx="18" cy="16" r="9" fill="#B026FF"/>
    <text x="18" y="20" fill="#FFF" font-family="Manrope" font-size="9" font-weight="800" text-anchor="middle">JF</text>
    <text x="34" y="14" fill="#FFF" font-family="Manrope" font-size="8" font-weight="700">Admin</text>
    <text x="34" y="24" fill="#7A8AAE" font-family="Manrope" font-size="7">felix@lms</text>
  </g>

  <text x="158" y="80" fill="#FFF" font-family="Manrope" font-size="14" font-weight="800">Panel principal</text>
  <text x="158" y="94" fill="#7A8AAE" font-family="Manrope" font-size="8">Resumen general · marzo 2026</text>

  <g transform="translate(158, 108)">
    <g>
      <rect width="115" height="58" rx="6" fill="url(#lmsCard1)" stroke="#00F0FF" stroke-width="1" stroke-opacity="0.4"/>
      <text x="10" y="18" fill="#7A8AAE" font-family="Manrope" font-size="7" font-weight="600">CURSOS ACTIVOS</text>
      <text x="10" y="40" fill="#00F0FF" font-family="Anton, sans-serif" font-size="22">24</text>
      <text x="45" y="40" fill="#5DCAA5" font-family="Manrope" font-size="8" font-weight="700">↑ 12%</text>
      <polyline points="10,50 25,46 40,48 55,43 70,44 85,40 100,38" fill="none" stroke="#00F0FF" stroke-width="1.5"/>
    </g>

    <g transform="translate(127, 0)">
      <rect width="115" height="58" rx="6" fill="url(#lmsCard2)" stroke="#B026FF" stroke-width="1" stroke-opacity="0.4"/>
      <text x="10" y="18" fill="#7A8AAE" font-family="Manrope" font-size="7" font-weight="600">ESTUDIANTES</text>
      <text x="10" y="40" fill="#B026FF" font-family="Anton, sans-serif" font-size="22">1,2K</text>
      <text x="55" y="40" fill="#5DCAA5" font-family="Manrope" font-size="8" font-weight="700">↑ 8%</text>
      <polyline points="10,48 25,45 40,42 55,44 70,40 85,38 100,35" fill="none" stroke="#B026FF" stroke-width="1.5"/>
    </g>

    <g transform="translate(254, 0)">
      <rect width="115" height="58" rx="6" fill="url(#lmsCard3)" stroke="#5DCAA5" stroke-width="1" stroke-opacity="0.4"/>
      <text x="10" y="18" fill="#7A8AAE" font-family="Manrope" font-size="7" font-weight="600">COMPLETADOS</text>
      <text x="10" y="40" fill="#5DCAA5" font-family="Anton, sans-serif" font-size="22">87%</text>
      <text x="55" y="40" fill="#5DCAA5" font-family="Manrope" font-size="8" font-weight="700">↑ 4%</text>
      <circle cx="98" cy="42" r="9" fill="none" stroke="#1E2A4A" stroke-width="2.5"/>
      <path d="M 98 33 A 9 9 0 1 1 91 49" fill="none" stroke="#5DCAA5" stroke-width="2.5" stroke-linecap="round"/>
    </g>
  </g>

  <g transform="translate(158, 178)">
    <rect width="369" height="148" rx="6" fill="#0A0E1A" stroke="#1E2A4A" stroke-width="1"/>
    <text x="14" y="22" fill="#FFF" font-family="Manrope" font-size="10" font-weight="700">Cursos recientes</text>
    <text x="355" y="22" fill="#00F0FF" font-family="Manrope" font-size="8" text-anchor="end" font-weight="700">Ver todos →</text>

    <line x1="14" y1="32" x2="355" y2="32" stroke="#1E2A4A"/>
    <text x="14" y="46" fill="#7A8AAE" font-family="Manrope" font-size="7" font-weight="700">CURSO</text>
    <text x="200" y="46" fill="#7A8AAE" font-family="Manrope" font-size="7" font-weight="700">ALUMNOS</text>
    <text x="270" y="46" fill="#7A8AAE" font-family="Manrope" font-size="7" font-weight="700">PROGRESO</text>
    <text x="355" y="46" fill="#7A8AAE" font-family="Manrope" font-size="7" font-weight="700" text-anchor="end">ESTADO</text>

    <g transform="translate(0, 56)">
      <rect x="14" y="0" width="6" height="20" rx="1.5" fill="#00F0FF"/>
      <text x="26" y="14" fill="#FFF" font-family="Manrope" font-size="9" font-weight="600">JavaScript Fundamentals</text>
      <text x="200" y="14" fill="#FFF" font-family="Manrope" font-size="9">324</text>
      <rect x="270" y="8" width="60" height="6" rx="3" fill="#1E2A4A"/>
      <rect x="270" y="8" width="48" height="6" rx="3" fill="#00F0FF"/>
      <text x="355" y="14" fill="#5DCAA5" font-family="Manrope" font-size="8" text-anchor="end" font-weight="700">● Activo</text>
    </g>

    <g transform="translate(0, 84)">
      <rect x="14" y="0" width="6" height="20" rx="1.5" fill="#B026FF"/>
      <text x="26" y="14" fill="#FFF" font-family="Manrope" font-size="9" font-weight="600">CSS Avanzado · Grid+Flex</text>
      <text x="200" y="14" fill="#FFF" font-family="Manrope" font-size="9">187</text>
      <rect x="270" y="8" width="60" height="6" rx="3" fill="#1E2A4A"/>
      <rect x="270" y="8" width="36" height="6" rx="3" fill="#B026FF"/>
      <text x="355" y="14" fill="#5DCAA5" font-family="Manrope" font-size="8" text-anchor="end" font-weight="700">● Activo</text>
    </g>

    <g transform="translate(0, 112)">
      <rect x="14" y="0" width="6" height="20" rx="1.5" fill="#5DCAA5"/>
      <text x="26" y="14" fill="#FFF" font-family="Manrope" font-size="9" font-weight="600">HTML5 Semántico</text>
      <text x="200" y="14" fill="#FFF" font-family="Manrope" font-size="9">452</text>
      <rect x="270" y="8" width="60" height="6" rx="3" fill="#1E2A4A"/>
      <rect x="270" y="8" width="58" height="6" rx="3" fill="#5DCAA5"/>
      <text x="355" y="14" fill="#FFB23F" font-family="Manrope" font-size="8" text-anchor="end" font-weight="700">● Borrador</text>
    </g>
  </g>
</svg>
